<svg width="136" height="164" viewBox="0 0 136 164" fill="none" xmlns="http://www.w3.org/2000/svg">
<rect x="21.3438" width="7.68358" height="6.82985" fill="#000300"/>
<rect x="99.8867" y="6.82959" width="6.82985" height="7.68358" fill="#000300"/>
<rect x="114.399" y="6.82959" width="6.82985" height="7.68358" fill="#000300"/>
<rect x="106.716" width="7.68358" height="6.82985" fill="#000300"/>
<rect x="35.8564" y="14.5132" width="92.2029" height="6.82985" fill="#000300"/>
<rect x="29.0264" y="6.82959" width="6.82985" height="14.5134" fill="#000300"/>
<rect x="14.5137" y="6.82959" width="6.82985" height="14.5134" fill="#000300"/>
<rect x="7.68359" y="21.3438" width="6.82985" height="28.1731" fill="#000300"/>
<rect y="49.5161" width="7.68358" height="21.3433" fill="#000300"/>
<rect x="7.68359" y="70.8599" width="6.82985" height="29.0269" fill="#000300"/>
<rect x="14.5137" y="99.8867" width="21.3433" height="6.82985" fill="#000300"/>
<rect x="35.8564" y="106.716" width="7.68358" height="6.82985" fill="#000300"/>
<rect x="35.8564" y="134.89" width="6.82985" height="7.68358" fill="#000300"/>
<rect x="42.6875" y="142.573" width="7.68358" height="13.6597" fill="#000300"/>
<rect x="43.541" y="120.376" width="7.68358" height="15.3672" fill="#000300"/>
<rect x="57.2002" y="142.573" width="6.82985" height="13.6597" fill="#000300"/>
<rect x="50.3701" y="156.233" width="6.82985" height="7.68358" fill="#000300"/>
<rect x="78.5439" y="142.573" width="6.82985" height="13.6597" fill="#000300"/>
<rect x="63.1758" y="142.573" width="22.197" height="6.82985" fill="#000300"/>
<rect x="85.373" y="156.233" width="7.68358" height="7.68358" fill="#000300"/>
<rect x="93.0566" y="142.573" width="6.82985" height="13.6597" fill="#000300"/>
<rect x="106.716" y="134.89" width="7.68358" height="7.68358" fill="#000300"/>
<rect x="114.399" y="121.229" width="6.82985" height="13.6597" fill="#000300"/>
<rect x="106.716" y="113.546" width="7.68358" height="7.68358" fill="#000300"/>
<rect x="106.716" y="99.8867" width="21.3433" height="6.82985" fill="#000300"/>
<rect x="128.061" y="21.3438" width="7.68358" height="78.5432" fill="#000300"/>
<rect x="114.4" y="35.0029" width="6.82985" height="58.0537" fill="#000300"/>
<rect x="42.6865" y="28.1733" width="78.5432" height="6.82985" fill="#000300"/>
<rect x="99.8867" y="106.716" width="6.82985" height="35.8567" fill="#000300"/>
<rect x="29.0264" y="113.546" width="6.82985" height="21.3433" fill="#000300"/>
<rect x="14.5137" y="70.8599" width="6.82985" height="29.0269" fill="#E85D04"/>
<rect x="14.5146" y="21.3438" width="6.82985" height="28.1731" fill="#E85D04"/>
<rect x="29.0283" y="21.3438" width="6.82985" height="78.5432" fill="#E85D04"/>
<rect x="21.3447" y="6.83008" width="7.68358" height="93.0567" fill="#E85D04"/>
<rect x="35.8564" y="113.546" width="7.68358" height="14.5134" fill="#E85D04"/>
<rect x="106.716" y="121.229" width="7.68358" height="7.68358" fill="#E85D04"/>
<rect x="50.3701" y="106.716" width="6.82985" height="42.6865" fill="#E85D04"/>
<rect x="57.2002" y="106.716" width="42.6865" height="6.82985" fill="#E85D04"/>
<rect x="93.0566" y="113.546" width="6.82985" height="29.0269" fill="#E85D04"/>
<rect x="86.2266" y="135.744" width="6.82985" height="13.6597" fill="#E85D04"/>
<rect x="57.2002" y="135.744" width="29.0269" height="6.82985" fill="#E85D04"/>
<rect x="7.68359" y="49.5161" width="13.6597" height="21.3433" fill="#370617"/>
<rect x="42.6875" y="35.8569" width="71.7134" height="21.3433" fill="#013F68"/>
<rect x="42.6875" y="35.0029" width="71.7134" height="58.0537" fill="#013F68"/>
<rect x="50" y="48" width="16" height="16" fill="#00FFAE"/>
<rect x="66" y="78" width="4" height="7" fill="#00FFAE"/>
<rect x="90" y="78" width="4" height="7" fill="#00FFAE"/>
<rect x="97" y="48" width="16" height="16" fill="#00FFAE"/>
<rect x="70" y="85" width="20" height="4" fill="#00FFAE"/>
<rect x="70" y="74" width="20" height="4" fill="#00FFAE"/>
<rect x="57.2002" y="113.546" width="6.82985" height="22.197" fill="#370617"/>
<rect x="42.6875" y="134.036" width="7.68358" height="8.53731" fill="#370617"/>
<rect x="43.54" y="99.8867" width="6.82985" height="20.4895" fill="#370617"/>
<rect x="35.8564" y="99.8867" width="7.68358" height="6.82985" fill="#370617"/>
<rect x="50.3701" y="99.8867" width="56.3462" height="6.82985" fill="#370617"/>
<rect x="22.1973" y="49.5161" width="6.82985" height="21.3433" fill="#FAA307"/>
<rect x="35.8564" y="21.3428" width="6.82985" height="77.6895" fill="#FAA307"/>
<rect x="121.229" y="21.3428" width="6.82985" height="77.6895" fill="#FAA307"/>
<rect x="42.6865" y="93.0562" width="78.5432" height="5.97612" fill="#FAA307"/>
<rect x="42.6865" y="21.3428" width="78.5432" height="6.82985" fill="#FAA307"/>
<rect x="106.716" y="128.913" width="7.68358" height="5.97612" fill="#FFBA08"/>
<rect x="35.8564" y="128.06" width="7.68358" height="6.82985" fill="#FFBA08"/>
<rect x="50.3701" y="149.403" width="6.82985" height="6.82985" fill="#FFBA08"/>
<rect x="86.2266" y="149.403" width="6.82985" height="6.82985" fill="#FFBA08"/>
<rect x="64.0293" y="113.546" width="29.0269" height="22.197" fill="#FFBA08"/>
<rect x="106.716" y="6.82959" width="7.68358" height="7.68358" fill="#E85D04"/>
</svg>
