<svg width="204" height="247" viewBox="0 0 204 247" fill="none" xmlns="http://www.w3.org/2000/svg">
<rect x="32.0752" width="11.5472" height="10.2642" fill="#000300"/>
<rect x="150.113" y="10.2642" width="10.2642" height="11.5472" fill="#000300"/>
<rect x="171.925" y="10.2642" width="10.2642" height="11.5472" fill="#000300"/>
<rect x="160.377" width="11.5472" height="10.2642" fill="#000300"/>
<rect x="53.8867" y="21.8115" width="138.566" height="10.2642" fill="#000300"/>
<rect x="43.623" y="10.2642" width="10.2642" height="21.8113" fill="#000300"/>
<rect x="21.8115" y="10.2642" width="10.2642" height="21.8113" fill="#000300"/>
<rect x="11.5469" y="32.0757" width="10.2642" height="42.3396" fill="#000300"/>
<rect y="74.415" width="11.5472" height="32.0755" fill="#000300"/>
<rect x="11.5469" y="106.491" width="10.2642" height="43.6226" fill="#000300"/>
<rect x="21.8115" y="150.113" width="32.0755" height="10.2642" fill="#000300"/>
<rect x="53.8867" y="160.377" width="11.5472" height="10.2642" fill="#000300"/>
<rect x="53.8867" y="202.717" width="10.2642" height="11.5472" fill="#000300"/>
<rect x="64.1514" y="214.264" width="11.5472" height="20.5283" fill="#000300"/>
<rect x="65.4336" y="180.906" width="11.5472" height="23.0943" fill="#000300"/>
<rect x="85.9619" y="214.264" width="10.2642" height="20.5283" fill="#000300"/>
<rect x="75.6982" y="234.792" width="10.2642" height="11.5472" fill="#000300"/>
<rect x="118.038" y="214.264" width="10.2642" height="20.5283" fill="#000300"/>
<rect x="94.9434" y="214.264" width="33.3585" height="10.2642" fill="#000300"/>
<rect x="128.302" y="234.792" width="11.5472" height="11.5472" fill="#000300"/>
<rect x="139.849" y="214.264" width="10.2642" height="20.5283" fill="#000300"/>
<rect x="160.377" y="202.717" width="11.5472" height="11.5472" fill="#000300"/>
<rect x="171.925" y="182.188" width="10.2642" height="20.5283" fill="#000300"/>
<rect x="160.377" y="170.642" width="11.5472" height="11.5472" fill="#000300"/>
<rect x="160.377" y="150.113" width="32.0755" height="10.2642" fill="#000300"/>
<rect x="192.453" y="32.0757" width="11.5472" height="118.038" fill="#000300"/>
<rect x="171.924" y="52.6035" width="10.2642" height="87.2453" fill="#000300"/>
<rect x="64.1504" y="42.3394" width="118.038" height="10.2642" fill="#000300"/>
<rect x="150.113" y="160.377" width="10.2642" height="53.8868" fill="#000300"/>
<rect x="43.623" y="170.642" width="10.2642" height="32.0755" fill="#000300"/>
<rect x="21.8115" y="106.491" width="10.2642" height="43.6226" fill="#E85D04"/>
<rect x="21.8115" y="32.0757" width="10.2642" height="42.3396" fill="#E85D04"/>
<rect x="43.623" y="32.0757" width="10.2642" height="118.038" fill="#E85D04"/>
<rect x="32.0752" y="10.2642" width="11.5472" height="139.849" fill="#E85D04"/>
<rect x="53.8867" y="170.642" width="11.5472" height="21.8113" fill="#E85D04"/>
<rect x="160.377" y="182.188" width="11.5472" height="11.5472" fill="#E85D04"/>
<rect x="75.6982" y="160.377" width="10.2642" height="64.1509" fill="#E85D04"/>
<rect x="85.9619" y="160.377" width="64.1509" height="10.2642" fill="#E85D04"/>
<rect x="139.849" y="170.642" width="10.2642" height="43.6226" fill="#E85D04"/>
<rect x="129.585" y="204" width="10.2642" height="20.5283" fill="#E85D04"/>
<rect x="85.9619" y="204" width="43.6226" height="10.2642" fill="#E85D04"/>
<rect x="11.5469" y="74.415" width="20.5283" height="32.0755" fill="#370617"/>
<rect x="64.1514" y="53.8867" width="107.774" height="32.0755" fill="#013F68"/>
<rect x="64.1514" y="52.604" width="107.774" height="87.2453" fill="#013F68"/>
<rect x="75.6982" y="85.9624" width="10.2642" height="10.2642" fill="#00FFAE"/>
<rect x="160.377" y="85.9624" width="10.2642" height="10.2642" fill="#00FFAE"/>
<rect x="96.2266" y="106.491" width="11.5472" height="11.5472" fill="#00FFAE"/>
<rect x="138.566" y="106.491" width="11.5472" height="11.5472" fill="#00FFAE"/>
<rect x="107.773" y="118.038" width="30.7925" height="10.2642" fill="#00FFAE"/>
<rect x="85.9619" y="170.642" width="10.2642" height="33.3585" fill="#370617"/>
<rect x="64.1514" y="201.434" width="11.5472" height="12.8302" fill="#370617"/>
<rect x="65.4336" y="150.113" width="10.2642" height="30.7925" fill="#370617"/>
<rect x="53.8867" y="150.113" width="11.5472" height="10.2642" fill="#370617"/>
<rect x="75.6982" y="150.113" width="84.6792" height="10.2642" fill="#370617"/>
<rect x="33.3584" y="74.415" width="10.2642" height="32.0755" fill="#FAA307"/>
<rect x="53.8867" y="32.0757" width="10.2642" height="116.755" fill="#FAA307"/>
<rect x="182.188" y="32.0757" width="10.2642" height="116.755" fill="#FAA307"/>
<rect x="64.1514" y="139.849" width="118.038" height="8.98113" fill="#FAA307"/>
<rect x="64.1514" y="32.0757" width="118.038" height="10.2642" fill="#FAA307"/>
<rect x="160.377" y="193.736" width="11.5472" height="8.98113" fill="#FFBA08"/>
<rect x="53.8867" y="192.453" width="11.5472" height="10.2642" fill="#FFBA08"/>
<rect x="75.6982" y="224.528" width="10.2642" height="10.2642" fill="#FFBA08"/>
<rect x="129.585" y="224.528" width="10.2642" height="10.2642" fill="#FFBA08"/>
<rect x="96.2266" y="170.642" width="43.6226" height="33.3585" fill="#FFBA08"/>
<rect x="160.377" y="10.2642" width="11.5472" height="11.5472" fill="#E85D04"/>
</svg>
